<svg xmlns="http://www.w3.org/2000/svg" width="40" height="40"><g color="#000" stroke-linecap="round" stroke-linejoin="round"><path d="M329.32-152.988a19.029 19.029 0 0 0-8.283 2.235 18.968 18.968 0 0 0-6.111 5.187 18.976 18.976 0 0 0-3.799 9.373 18.986 18.986 0 0 0 2.418 11.693c.333.578 1.2.078.867-.5a17.979 17.979 0 0 1-2.35-7.492 17.976 17.976 0 0 1 3.656-12.465 17.987 17.987 0 0 1 10.213-6.578 17.986 17.986 0 0 1 8.727.148c.645.174.905-.793.26-.967a18.98 18.98 0 0 0-5.598-.634zm.68 2.488a16.56 16.56 0 0 0-3.434.357c-.652.138-.445 1.117.207.979A15.59 15.59 0 0 1 330-149.5c.676.01.676-1.01 0-1zm-7.307 1.758a.5.5 0 0 0-.224.056c-5.326 2.737-8.969 8.29-8.969 14.686-.01.676 1.01.676 1 0 0-6.016 3.423-11.224 8.426-13.795.476-.238.3-.957-.233-.947zm18.616 2.924a.5.5 0 0 0-.348.857 15.498 15.498 0 0 1 .39 21.518c-.52.488.282 1.234.731.68a16.504 16.504 0 0 0-.414-22.904.5.5 0 0 0-.36-.151zm4.72 20.562a.5.5 0 0 0-.441.256c-4.974 8.614-15.974 11.561-24.588 6.588-.578-.333-1.078.534-.5.867 9.082 5.244 20.711 2.127 25.955-6.955a.5.5 0 0 0-.426-.756zm-6.98 3.936a.503.503 0 0 0-.266.091 15.53 15.53 0 0 1-1.676 1.004c-.629.293-.146 1.23.457.89a16.55 16.55 0 0 0 1.786-1.07c.423-.28.206-.94-.301-.915zm-6.041 2.533a.471.471 0 0 0-.084.01c-.952.183-1.93.277-2.924.277-.676-.01-.676 1.01 0 1 1.058 0 2.1-.1 3.113-.295.614-.108.517-1.015-.105-.992z" style="line-height:normal;text-indent:0;text-align:start;text-decoration-line:none;text-decoration-style:solid;text-decoration-color:#000;text-transform:none;block-progression:tb;isolation:auto;mix-blend-mode:normal" font-family="sans-serif" overflow="visible" fill="#97d3b7" transform="translate(-308.763 154)"/><path transform="translate(-308.763 154)" d="M330-147.588A13.589 13.589 0 0 0 316.412-134 13.589 13.589 0 0 0 330-120.412 13.589 13.589 0 0 0 343.588-134 13.589 13.589 0 0 0 330-147.588zm5.479 8.71c.383 0 .766.147 1.06.44a1.496 1.496 0 0 1 0 2.122l-7.494 7.496a1.496 1.496 0 0 1-2.121 0l-3.182-3.182a1.496 1.496 0 0 1 0-2.121 1.496 1.496 0 0 1 2.121 0l2.121 2.121 6.434-6.435a1.496 1.496 0 0 1 1.06-.442z" style="isolation:auto;mix-blend-mode:normal" overflow="visible" fill="#38f69b"/><path d="M323.741-134.124a1.497 1.497 0 0 0 0 2.122l3.182 3.181a1.497 1.497 0 0 0 2.121 0l7.496-7.495a1.497 1.497 0 0 0 0-2.122 1.497 1.497 0 0 0-2.122 0l-6.434 6.435-2.121-2.12a1.497 1.497 0 0 0-2.122 0z" style="isolation:auto;mix-blend-mode:normal" overflow="visible" fill="#fff" transform="translate(-308.763 154)"/><path d="M330-148.088c-7.775 0-14.088 6.313-14.088 14.088 0 7.775 6.313 14.088 14.088 14.088 7.775 0 14.088-6.313 14.088-14.088 0-7.775-6.313-14.088-14.088-14.088zm0 1c7.235 0 13.088 5.853 13.088 13.088 0 7.235-5.853 13.088-13.088 13.088-7.235 0-13.088-5.853-13.088-13.088 0-7.235 5.853-13.088 13.088-13.088zm5.479 7.713c-.513 0-1.026.195-1.415.584l-6.08 6.082-1.767-1.768a2.006 2.006 0 0 0-2.828 0 2.006 2.006 0 0 0 0 2.829l3.181 3.181a2.005 2.005 0 0 0 2.828 0l7.495-7.496a2.006 2.006 0 0 0 0-2.828 1.995 1.995 0 0 0-1.414-.584zm0 .992c.254 0 .508.1.707.299a.987.987 0 0 1 0 1.414l-7.495 7.496a.987.987 0 0 1-1.414 0l-3.181-3.181a.987.987 0 0 1 0-1.415.987.987 0 0 1 1.414 0l2.12 2.122a.5.5 0 0 0 .708 0l6.433-6.436a.997.997 0 0 1 .708-.299z" style="line-height:normal;text-indent:0;text-align:start;text-decoration-line:none;text-decoration-style:solid;text-decoration-color:#000;text-transform:none;block-progression:tb;isolation:auto;mix-blend-mode:normal" font-family="sans-serif" overflow="visible" fill="#398763" transform="translate(-308.763 154)"/></g></svg>