<svg xmlns="http://www.w3.org/2000/svg" id="Layer_1" x="0" y="0" enable-background="new 0 0 2950 2950" version="1.1" viewBox="0 0 2950 2950" xml:space="preserve"><g><g><g><path fill="#353434" d="M1594.6,1545.9h-130.2v-465.6c0-227.7-185.3-413-413-413c-227.7,0-413,185.3-413,413v465.6H508.1v-465.6
				c0-299.6,243.7-543.3,543.3-543.3s543.3,243.7,543.3,543.3V1545.9z"/></g><g><path fill="#f9a619" d="M1716.6,2411.9H386.1c-15.5,0-28.1-12.6-28.1-28.1v-1025c0-15.5,12.6-28.1,28.1-28.1h1330.6
				c15.5,0,28.1,12.6,28.1,28.1v1025C1744.7,2399.3,1732.2,2411.9,1716.6,2411.9z"/></g><g><path fill="#b1b4b1" d="M974.2,1907.4l-31.4,193h216.9l-31.4-193c40.1-25.5,66.7-70.4,66.7-121.4c0-75.9-58.9-138.1-133.4-143.3
				c-3.4-0.3-6.9-0.4-10.3-0.4c-79.4,0-143.7,64.4-143.7,143.7C907.6,1837,934.1,1881.8,974.2,1907.4z"/><path fill="#353434" d="M1195.1,1785.9c0,20.6-4.3,40.1-12.4,57.9c-5.6,13.1-13.3,25.1-22.5,35.8c-5.2,6-10.9,11.8-17.1,16.9
				c-4.7,3.9-9.6,7.5-14.8,10.9l4.1,24.9l27.2,168H963.6l31.3-192.9c-5.2-3.2-10.1-6.9-14.8-10.9c-17.1-14.2-30.7-32.2-39.5-52.7
				c-7.9-17.8-12.2-37.3-12.2-57.9c0-75.9,58.7-138,133.3-143.2C1136.1,1648,1195.1,1710,1195.1,1785.9z"/></g></g><g><g><g><g><g><path fill="#d0d7d4" d="M764.1,1635.5c-130.8-11.5-112-115.8-112-115.8l-537.6-0.2c0,0,18.9,104.4-112,115.8
							c0,0-57.7,456.5,380.8,776.5C821.8,2091.8,764.1,1635.5,764.1,1635.5z"/><path fill="#edf1f0" d="M764.1,1595.3c-130.8-11.5-112-115.8-112-115.8l-537.6-0.2c0,0,18.9,104.4-112,115.8
							c0,0-57.7,456.5,380.8,776.5C821.8,2051.7,764.1,1595.3,764.1,1595.3z"/><path fill="#5facf2" d="M383.3,2311.1C65.4,2061.5,46,1741,49,1635.6c36.5-9.6,65.1-27.3,85.5-53.2
							c14.4-18.4,22.2-37.8,26.2-55.4l222.6,0.2l222.6,0.2c4,17.4,11.8,36.8,26.2,55.2c20.2,25.9,49.1,43.8,85.5,53.2
							C720.6,1741,701.2,2061.4,383.3,2311.1z"/></g></g></g></g><g><path fill="#fff" d="M581.1,1736.7l-271.4,232.7c-11.1,9.6-27.9,8.3-37.5-2.9l-56-65.4c-9.6-11.1-8.3-27.9,2.9-37.5
				c11.1-9.6,27.9-8.3,37.5,2.9l38.7,45.2l251.2-215.4c11.1-9.6,27.9-8.3,37.5,2.9C593.6,1710.4,592.3,1727.1,581.1,1736.7z"/></g></g><g><path fill="#6b6b6d" d="M2770.9,2413.1H1343.4c-98.9,0-179.1-80.2-179.1-179.1v0c0-98.9,80.2-179.1,179.1-179.1h1427.5
			c98.9,0,179.1,80.2,179.1,179.1v0C2950,2332.9,2869.8,2413.1,2770.9,2413.1z"/><g><g><g><g><g><g><g><polygon fill="#fdbe10" points="1477.4 2266 1491.8 2349.8 1416.6 2310.2 1341.2 2349.8 1345.9 2321.9 1355.7 2266 1294.7 2206.6 1378.8 2194.4 1416.6 2118.1 1454.2 2194.4 1499.4 2201.1 1538.3 2206.6"/></g></g></g></g></g><path fill="#fcd600" d="M1318.7,2206.2l58.7-6.9c2.9-0.3,5.4-2.1,6.6-4.8l22-47.8l-16.7,51.3c-1.5,4.8-6,8-11,8L1318.7,2206.2z"/><path fill="#f4b11a" d="M1477.4,2266l14.5,83.8l-75.2-39.5l-75.5,39.5l4.7-27.8c79.4-26.7,130.6-88,153.4-120.9l39,5.6
					L1477.4,2266z"/></g><g><g><g><g><g><g><polygon fill="#fdbe10" points="1797.7 2266 1812.2 2349.8 1737 2310.2 1661.5 2349.8 1666.2 2321.9 1676 2266 1615 2206.6 1699.1 2194.4 1737 2118.1 1774.6 2194.4 1819.7 2201.1 1858.7 2206.6"/></g></g></g></g></g><path fill="#fcd600" d="M1639,2206.2l58.7-6.9c2.9-0.3,5.4-2.1,6.6-4.8l22-47.8l-16.7,51.3c-1.5,4.8-6,8-11,8L1639,2206.2z"/><path fill="#f4b11a" d="M1797.7,2266l14.5,83.8l-75.2-39.5l-75.5,39.5l4.7-27.8c79.4-26.7,130.6-88,153.4-120.9l39,5.6
					L1797.7,2266z"/></g><g><g><g><g><g><g><polygon fill="#fdbe10" points="2118 2266 2132.5 2349.8 2057.3 2310.2 1981.8 2349.8 1986.6 2321.9 1996.3 2266 1935.3 2206.6 2019.4 2194.4 2057.3 2118.1 2094.9 2194.4 2140 2201.1 2179 2206.6"/></g></g></g></g></g><path fill="#fcd600" d="M1959.3,2206.2l58.7-6.9c2.9-0.3,5.4-2.1,6.6-4.8l22-47.8l-16.7,51.3c-1.5,4.8-6,8-11,8L1959.3,2206.2z"/><path fill="#f4b11a" d="M2118,2266l14.5,83.8l-75.2-39.5l-75.5,39.5l4.7-27.8c79.4-26.7,130.6-88,153.4-120.9l39,5.6L2118,2266z"/></g><g><g><g><g><g><g><polygon fill="#fdbe10" points="2438.3 2266 2452.8 2349.8 2377.6 2310.2 2302.1 2349.8 2306.9 2321.9 2316.6 2266 2255.6 2206.6 2339.7 2194.4 2377.6 2118.1 2415.2 2194.4 2460.3 2201.1 2499.3 2206.6"/></g></g></g></g></g><path fill="#fcd600" d="M2279.6,2206.2l58.7-6.9c2.9-0.3,5.4-2.1,6.6-4.8l22-47.8l-16.7,51.3c-1.5,4.8-6,8-11,8L2279.6,2206.2z"/><path fill="#f4b11a" d="M2438.3,2266l14.5,83.8l-75.2-39.5l-75.5,39.5l4.7-27.8c79.4-26.7,130.6-88,153.4-120.9l39,5.6
					L2438.3,2266z"/></g><g><g><g><g><g><g><polygon fill="#fdbe10" points="2758.6 2266 2773.1 2349.8 2697.9 2310.2 2622.5 2349.8 2627.2 2321.9 2636.9 2266 2576 2206.6 2660.1 2194.4 2697.9 2118.1 2735.5 2194.4 2780.6 2201.1 2819.6 2206.6"/></g></g></g></g></g><path fill="#fcd600" d="M2599.9,2206.2l58.7-6.9c2.9-0.3,5.4-2.1,6.6-4.8l22-47.8l-16.7,51.3c-1.5,4.8-6,8-11,8L2599.9,2206.2z"/><path fill="#f4b11a" d="M2758.6,2266l14.5,83.8l-75.2-39.5l-75.5,39.5l4.7-27.8c79.4-26.7,130.6-88,153.4-120.9l39,5.6
					L2758.6,2266z"/></g></g></g><g><path fill="#e63a48" d="M2423.9,1545.1c-2.6,45-2.6,93.9-1.1,140.4l-72.5,46l16.1,80.1c0,0,26.2-12.2,61.4-28.8
			c4.2,60.8,9.3,103.7,9.3,103.7c-66.9,23.8-110.8,18.5-188.6,17.2c-77.8,1.3-117.7-4.5-184.6-28.3c0,0,3.7-34.4,7.1-85.2
			c34.9,17.7,60.8,30.9,60.8,30.9l-6.3-71.1l-50.3-43.1c1.9-54.2,2.1-114.3-2.1-168.5c-3.4-45.8-10.1-87-21.2-116.9
			c0,0,0-0.3-0.3-0.5c-0.5-0.8-2.9-4.5-2.9-4.5c0.3-0.3,0.3-0.3,0.5-0.5c0.1-0.1,0.2-0.1,0.3-0.2c17.9-13.5,39.8-18.8,61.2-25.7
			c137.2-44.1,315.4,4,336.3,25.6c-1.6,4-2.1,5.8-2.1,5.8C2433.4,1452.2,2427.1,1496.2,2423.9,1545.1z"/><path fill="#4b84c4" d="M2427.8,1782.9c-35.2,16.7-61.4,28.8-61.4,28.8l-16.1-80.1l72.5-46
			C2423.9,1720.2,2425.7,1753.8,2427.8,1782.9z"/><path fill="#4b84c4" d="M2131.9,1821.2c0,0-25.9-13.2-60.8-30.9c1.6-24.6,3.2-52.9,4.2-83.3l50.3,43.1L2131.9,1821.2z"/><path fill="#e63a48" d="M2597.1,1693.5c-11.4,13-105,58.7-169.3,89.4c-35.2,16.7-61.4,28.8-61.4,28.8l-16.1-80.1l72.5-46l72.7-46.3
			c-20.6-40.2-71.4-94.1-71.4-94.1h-0.3c3.2-48.9-158.8-99,21.2-123.5c0,0,0.5-1.9,2.1-5.8c78.3,54.5,127.2,155.8,151,206.3
			C2608.8,1644,2615.9,1672.6,2597.1,1693.5z"/><path fill="#e63a48" d="M2131.9,1821.2c0,0-25.9-13.2-60.8-30.9c-64.8-33.6-159.5-83.8-171.1-96.8c-18.8-20.9-11.6-49.5-1.1-71.4
			c22.7-48.1,76.7-148.6,150-205.5c0,0,2.4,3.7,2.9,4.5c0.3,0.3,0.3,0.5,0.3,0.5c49.6,27.8,103.7,55.9,21.2,116.9
			c-1.1,0.3-2.4,0.3-3.4,0c0,0-50.8,61.9-71.4,102.1l77,66.4l50.3,43.1L2131.9,1821.2z"/><path fill="#2b2b2b" d="M2100.1,1848.3c0,0,41.8-28.2,58.2-10.7c0,0,163.1-33.9,225.7,10.7c0,0,61-43.7,93.1,0
			c0,0-37.5,79.8-41.3,79.8c-3.8,0-247.3,27.4-250.8,24.9c-3.4-2.6-71.2-58.3-71.2-58.3C2113.8,1894.6,2100.1,1848.3,2100.1,1848.3z
			"/><g><path fill="#eceff0" d="M2399.1,1846.5h-292c-11.6,0-21.1-9.2-21.5-20.8l-5.6-186.9c-0.4-12.1,9.4-22.1,21.5-22.1h303.2
				c12.1,0,21.8,10,21.5,22.1l-5.6,186.9C2420.3,1837.3,2410.7,1846.5,2399.1,1846.5z"/></g><g><path fill="#353434" d="M2301,2029.2c-65.8,1.7-113.8-2.1-166.2-24.3c-40.5-17.1-79.2-38.1-120.3-53.9
				c-121.9-46.7-131-121.2-118.6-149.1c26.5-57.6,68.8-63.1,102.1-56.1c24.6,5.2,46.7,18.3,64.2,36.3
				c74.4,76.3,166.1,135.4,273.5,178.9L2301,2029.2z"/><g><path fill="#353434" d="M2477.9,1961.3l-7.1,2.7c-13.4,5.1-27.5,8-41.8,8.5l-14.4,0.5l-33,28.3l-6.4,40.3l48,16.3l81.9,2.8
					c4.5,0.2,8.9-0.5,13.1-2.2c10.3-4.2,15.3-12.8,13-36.2c0,0-1.8-32.5-17.2-51.8C2505.5,1959.9,2490.7,1956.4,2477.9,1961.3z"/><path fill="#353434" d="M2469.1,1962.2l-7.1,2.7c-13.4,5.1-27.5,8-41.8,8.5l-14.4,0.5l-33,28.3l-6.4,40.3l48,16.3l81.9,2.8
					c4.5,0.2,8.9-0.5,13.1-2.2c10.3-4.2,15.3-12.8,13-36.2c0,0-1.8-32.5-17.2-51.8C2496.7,1960.7,2481.9,1957.2,2469.1,1962.2z"/><path fill="#f4c999" d="M2335.8,1961.1c0,0,21.9,9.6,70.1,12.9c0,0-54.9,36,8.6,84.9c-43.4-3.5-82.2-12.3-113.4-29.6L2335.8,1961.1
					z"/></g><path fill="#353434" d="M2232.5,2029.2c65.8,1.7,113.9-2.1,166.2-24.3c40.5-17.1,79.2-38.1,120.3-53.9
				c121.9-46.7,130.1-122.5,118.6-149.1c-26.5-57.6-68.8-63.1-102.1-56.1c-24.6,5.2-230.4,171.7-337.8,215.2L2232.5,2029.2z"/><g><path fill="#353434" d="M2055.6,1961.3l7.1,2.7c13.4,5.1,27.5,8,41.8,8.5l14.4,0.5l33,28.3l6.4,40.3l-48,16.3l-81.9,2.8
					c-4.5,0.2-8.9-0.5-13.1-2.2c-10.3-4.2-15.3-12.8-13-36.2c0,0,1.8-32.5,17.2-51.8C2027.9,1959.9,2042.8,1956.4,2055.6,1961.3z"/><path fill="#353434" d="M2064.3,1962.2l7.1,2.7c13.4,5.1,27.5,8,41.8,8.5l14.4,0.5l33,28.3l6.4,40.3l-48,16.3l-81.9,2.8
					c-4.5,0.2-8.9-0.5-13.1-2.2c-10.3-4.2-15.3-12.8-13-36.2c0,0,1.8-32.5,17.2-51.8C2036.7,1960.7,2051.5,1957.2,2064.3,1962.2z"/><path fill="#f4c999" d="M2197.7,1961.1c0,0-21.9,9.6-70,12.9c0,0,54.9,36-8.6,84.9c43.4-3.5,82.2-12.3,113.4-29.6L2197.7,1961.1z"/></g></g><g><g><path fill="#f4c999" d="M2323,1237.5c5.8,105.5-31.3,153.2-70,153.2s-79-56.2-70-153.2c5.1-55.1,31.3-47.2,70-47.2
					S2320,1182.3,2323,1237.5z"/><path fill="#f4c999" d="M2317.7,1276.4c0-0.8,17.2-31.5,18.3-10.9c1.1,20.7-7.4,46.6-14.6,50.6c-7.2,4-6.4-22.5-6.4-22.5
					L2317.7,1276.4z"/><path fill="#f4c999" d="M2187.2,1276.4c0-0.8-17.2-31.5-18.3-10.9c-1.1,20.7,7.4,46.6,14.6,50.6c7.2,4,6.4-22.5,6.4-22.5
					L2187.2,1276.4z"/></g><path fill="#353434" d="M2172,1258.5c0,0,11.3,21.3,14.6,31.8l1.3-56.5c0,0,18.6,12.7,44,1.1c25.4-11.7,72.4-17.3,72.4-17.3
				c1.8,11,5.5,20.9,10.8,30v46.1c0,0,5.1-23.8,12.7-32.1c0,0,7.3-53.6-8.2-66.3c0,0-4.2-55.1-75.3-44.9
				c-71,10.2-75.1,58.3-75.4,75.6C2168.6,1243.3,2172,1258.5,2172,1258.5z"/><path fill="#f4c999" d="M2251.2,1423L2251.2,1423c-26.2,0-47.4-21.2-47.4-47.4v-22h94.9v22C2298.6,1401.8,2277.4,1423,2251.2,1423z"/></g><path fill="#353434" d="M2279.3,1731.6c0,14.5-11.7,26.2-26.2,26.2c-14.5,0-26.2-11.7-26.2-26.2c0-14.5,11.7-26.2,26.2-26.2
			C2267.6,1705.4,2279.3,1717.1,2279.3,1731.6z"/></g></g></svg>