<svg xmlns="http://www.w3.org/2000/svg" enable-background="new 0 0 2000 2000" viewBox="0 0 2000 2000" class="d-none"><path fill="#e9eff8" fill-rule="evenodd" d="M997.8,1505.4c185.1,0,355.3,2.8,490.5,7.4c330.7-189,216.2-557.5,97.5-765.9&#10;&#9;&#9;C1420.5,456.8,1030,352.6,868.4,584c-219.2,314.1-430.8,204.5-545,443.1c-114.2,238.6,59.2,467.3,183.8,485.7&#10;&#9;&#9;C642.4,1508.2,812.7,1505.4,997.8,1505.4L997.8,1505.4z M708,701c-84.7,64.4-224.7,114.4-271.2,45.9c-34.7-51.2,8.1-147.2,91.9-220&#10;&#9;&#9;c83.7-72.7,196-116.8,257.1-63.2C858.4,527.2,773.2,651.4,708,701z" clip-rule="evenodd" class="colore9eef8 svgShape"/><path fill="#d2dcec" fill-rule="evenodd" d="M997.8,1505.4c439.4,0,795.5,15.6,795.5,34.8s-356.2,34.8-795.5,34.8s-795.5-15.6-795.5-34.8&#10;&#9;&#9;S558.4,1505.4,997.8,1505.4z" clip-rule="evenodd" class="colord2deec svgShape"/><path fill="#ffffff" fill-rule="evenodd" d="M1254.3,543.6c198.7,44.3,325.1,227,337.5,315.2c5.1,36.2-4.3-48.5-105.7-125.7&#10;&#9;&#9;c-90.6-68.9-161.1-81.7-268.9-90c-76.2-5.9-155.9-15.2-150.2-60.7C1071.5,546.6,1126.1,515.1,1254.3,543.6L1254.3,543.6z&#10;&#9;&#9; M734.8,469.7c34.2,2.1,55,30.1,56.5,62.5c0.6,13.8-10.2-22.2-48.1-27.3c-23.5-3.1-27.1,3.8-35.5-5.9&#10;&#9;&#9;C699.2,489.4,707.2,468.1,734.8,469.7z" clip-rule="evenodd" class="colorfff svgShape"/><path fill="#d2dcec" fill-rule="evenodd" d="M485.3,1425.1c-9.1-11.4-21.8-20.7-25.6-34.8c-4.4-16.6,5.3-34,2.9-51c-3-21.4-23.6-35.2-34.8-53.7&#10;&#9;&#9;c-10.9-18.1-5.8-24.2-6.8-45.3c-1.5-31.8-27.6-72-62.4-61.2c-35.3,11-29.5,43.8-23.3,68.5c4.4,17.6,1.5,20.1-2.8,37.7&#10;&#9;&#9;c-5.2,21.3-22,41.8-14.9,62.6c4.3,12.8,16.9,21.5,21.5,34.3c5.2,14.5-1.1,30.1-3.5,45.3c-5.1,31.9,2.2,58.5,25.4,84.8&#10;&#9;&#9;c2.5,2.4,5.1,4.6,7.8,6.6c32.5-1.8,69-3.5,109.1-5l0.3-0.3C499.4,1490.4,505.7,1450.7,485.3,1425.1z" clip-rule="evenodd" class="colord2deec svgShape"/><path fill="#ffffff" fill-rule="evenodd" d="M374.7,1207.9c-0.6-1.4-2.2-2.2-3.6-1.6c-1.4,0.5-2.2,2.2-1.6,3.6c2.8,7.2,5.1,14.8,7.1,22.6&#10;&#9;&#9;c-0.8-0.7-1.6-1.4-2.5-2.1c-3.8-3-8.1-5.7-12.9-8c-1.4-0.7-3.1-0.1-3.7,1.3c-0.7,1.4-0.1,3.1,1.3,3.7c4.4,2.1,8.4,4.5,11.8,7.3&#10;&#9;&#9;c3.3,2.6,6.1,5.6,8.5,8.8c3.6,17,5.9,35.3,8,54.6c-3.2-5-6.7-9.5-10.3-13.5c-6.4-6.9-13.4-12.3-21.2-16.1c-1.4-0.7-3.1-0.1-3.7,1.3&#10;&#9;&#9;c-0.7,1.4-0.1,3.1,1.3,3.7c7.1,3.5,13.6,8.5,19.5,14.9c5.9,6.4,11.2,14.2,15.9,23.5l0.5,5.2c1.2,11.5,2.4,23.3,3.8,35.4&#10;&#9;&#9;c0,0.1,0,0.2,0,0.3c1.5,12.6,3.3,25.5,5.5,38.5c-6-9.3-12.5-17.5-19.5-24.7c-10.2-10.5-21.3-18.6-33.5-24.5&#10;&#9;&#9;c-1.4-0.7-3.1-0.1-3.7,1.3c-0.7,1.4-0.1,3.1,1.3,3.7c11.6,5.6,22.2,13.4,31.9,23.4c9.7,10,18.5,22.2,26.4,36.6&#10;&#9;&#9;c3.4,17.3,7.8,35,13.6,52.8l0,0l0,0.1v0c2.9,8.8,6,17.6,9.6,26.4c-8.4-7.2-17.4-13.5-26.9-18.8c-13.2-7.4-27.4-12.8-42.6-16.3&#10;&#9;&#9;c-1.5-0.3-3,0.6-3.4,2.1c-0.3,1.5,0.6,3,2.1,3.4c14.7,3.4,28.4,8.6,41.1,15.7c12.6,7,24.3,15.8,35,26.5c2.5,5.5,5.1,11,7.9,16.5&#10;&#9;&#9;l6.1-0.3c-9.9-19-17.6-37.9-23.7-56.7c-1-13.6,0.6-27.2,4.8-40.8c4.3-13.8,11.4-27.6,21.2-41.4c0.9-1.3,0.6-3-0.7-3.9&#10;&#9;&#9;c-1.3-0.9-3-0.6-3.9,0.7c-10.1,14.3-17.5,28.6-22,43c-2.6,8.2-4.2,16.3-5,24.5c-8.4-30.2-13-59.8-16.4-88c3.3-12,6.9-22.1,11-30.3&#10;&#9;&#9;c4-8.2,8.4-14.6,13.1-19c1.1-1.1,1.2-2.8,0.1-3.9c-1.1-1.1-2.8-1.2-3.9-0.1c-5.2,4.9-10,11.8-14.3,20.6c-2.7,5.5-5.2,11.8-7.5,18.8&#10;&#9;&#9;c-0.8-7.4-1.6-14.8-2.3-22l-0.6-5.6c0-0.1,0-0.2,0-0.3C390,1272.4,386,1237.5,374.7,1207.9z" clip-rule="evenodd" class="colorfff svgShape"/><path fill="#c4d6f3" fill-rule="evenodd" d="M391.9,1440.1c-9.7-5.2-21.4-8-28.1-16.6c-8-10.2-6.4-25.3-13.1-36.4c-8.4-14-26.9-17.5-40.2-27.1&#10;&#9;&#9;c-13-9.4-11.2-15.1-18.2-29.5c-10.5-21.7-40.6-42-61.6-24.2c-21.4,18.1-7.6,39.2,4,54.6c8.3,10.9,7,13.6,9.3,27.1&#10;&#9;&#9;c2.7,16.4-2.9,35.7,8.1,48c6.8,7.7,18.2,10,25.1,17.5c7.9,8.5,8.2,21.3,11,32.6c3.7,15,10.3,27,20.6,36.7&#10;&#9;&#9;c27.8-2.1,60.5-4.1,97.5-5.9c2.8-4,5.1-8.5,6.8-13.1C421,1481.4,413.7,1451.8,391.9,1440.1z" clip-rule="evenodd" class="colorc4def3 svgShape"/><path fill="#ffffff" fill-rule="evenodd" d="M250.5,1321.5c-0.8-0.8-2.1-0.9-3-0.1c-0.8,0.8-0.9,2.1-0.1,3c4.1,4.2,7.9,8.8,11.6,13.7&#10;&#9;&#9;c-0.8-0.3-1.6-0.5-2.3-0.7c-3.5-1-7.3-1.6-11.4-1.7c-1.2,0-2.1,0.9-2.2,2c0,1.2,0.9,2.1,2,2.2c3.7,0.1,7.2,0.7,10.4,1.6&#10;&#9;&#9;c3.1,0.9,5.9,2.1,8.5,3.6c7.5,10.8,14.6,22.9,21.8,35.7c-3.7-2.5-7.5-4.7-11.2-6.4c-6.5-2.9-13-4.6-19.5-5c-1.2-0.1-2.2,0.8-2.2,2&#10;&#9;&#9;c-0.1,1.2,0.8,2.2,2,2.2c6,0.3,12,1.9,18,4.6c6,2.7,12,6.6,18,11.7l1.9,3.5c4.2,7.7,8.6,15.5,13.2,23.5c0,0.1,0.1,0.2,0.1,0.2&#10;&#9;&#9;c4.8,8.3,9.8,16.8,15.2,25.2c-7-4.7-13.9-8.5-20.9-11.4c-10.2-4.3-20.4-6.7-30.6-7.1c-1.2-0.1-2.2,0.8-2.2,2&#10;&#9;&#9;c-0.1,1.2,0.8,2.2,2,2.2c9.7,0.5,19.4,2.7,29.1,6.8c9.7,4.1,19.4,10,29.2,17.7c7.5,11.1,15.8,22,25.1,32.8l0,0l0,0l0,0&#10;&#9;&#9;c4.6,5.3,9.4,10.4,14.5,15.5c-8-2.5-16.1-4.3-24.3-5.1c-11.4-1.2-22.9-0.8-34.5,1.3c-1.1,0.2-1.9,1.3-1.7,2.4&#10;&#9;&#9;c0.2,1.1,1.3,1.9,2.4,1.7c11.2-2,22.3-2.4,33.3-1.2c10.8,1.2,21.6,3.8,32.2,8.1c3.7,3.4,7.5,6.7,11.4,10l6.3-0.3&#10;&#9;&#9;c-13.8-11-25.8-22.8-36.4-35c-4.8-9.2-7.7-19.1-8.7-29.9c-1.1-10.9-0.2-22.6,2.5-35.2c0.2-1.1-0.5-2.3-1.6-2.5&#10;&#9;&#9;c-1.1-0.2-2.3,0.5-2.5,1.6c-2.8,13-3.7,25.1-2.6,36.5c0.6,6.4,1.9,12.6,3.8,18.5c-14.8-18.6-26.8-37.8-37.5-56.4&#10;&#9;&#9;c-1.3-9.3-1.7-17.4-1.3-24.4c0.4-6.9,1.5-12.6,3.5-17.1c0.5-1.1,0-2.3-1.1-2.8c-1.1-0.5-2.3,0-2.8,1.1c-2.2,5-3.5,11.2-3.8,18.6&#10;&#9;&#9;c-0.2,4.6-0.1,9.7,0.3,15.3c-2.8-4.9-5.5-9.8-8.1-14.6l-2.1-3.7c0-0.1-0.1-0.1-0.1-0.2C280.3,1361.9,267.1,1338.8,250.5,1321.5z" clip-rule="evenodd" class="colorfff svgShape"/><path fill="#d2dcec" fill-rule="evenodd" d="M1475.1,1414.4c9.9-12.4,23.8-22.6,27.9-38c4.8-18.1-5.8-37.1-3.2-55.7c3.3-23.3,25.8-38.5,38-58.6&#10;&#9;&#9;c11.9-19.7,6.3-26.4,7.4-49.4c1.6-34.7,30.1-78.6,68.1-66.8c38.5,12,32.2,47.8,25.5,74.7c-4.8,19.2-1.7,22,3,41.2&#10;&#9;&#9;c5.7,23.2,24,45.7,16.3,68.3c-4.7,14-18.5,23.5-23.4,37.4c-5.6,15.8,1.2,32.9,3.8,49.4c5.5,34.8-2.4,63.8-27.7,92.6&#10;&#9;&#9;c-3.1,2.9-6.3,5.6-9.6,8c-35-1.8-74.1-3.4-116.5-4.9c-0.6-0.6-1.2-1.2-1.7-1.8C1459.8,1485.6,1452.9,1442.2,1475.1,1414.4z" clip-rule="evenodd" class="colord2deec svgShape"/><path fill="#ffffff" fill-rule="evenodd" d="M1595.9,1177.3c0.6-1.6,2.4-2.4,3.9-1.8c1.6,0.6,2.4,2.4,1.8,3.9c-3,7.9-5.5,16.1-7.7,24.7&#10;&#9;&#9;c0.9-0.8,1.8-1.6,2.7-2.3c4.1-3.3,8.8-6.2,14.1-8.7c1.5-0.7,3.3-0.1,4,1.5c0.7,1.5,0.1,3.3-1.5,4c-4.8,2.3-9.1,4.9-12.9,7.9&#10;&#9;&#9;c-3.6,2.9-6.7,6.1-9.3,9.6c-3.9,18.6-6.4,38.6-8.7,59.6c3.5-5.5,7.3-10.4,11.3-14.8c7-7.6,14.7-13.4,23.1-17.6&#10;&#9;&#9;c1.5-0.7,3.3-0.1,4.1,1.4c0.7,1.5,0.1,3.3-1.4,4.1c-7.7,3.8-14.8,9.3-21.3,16.3c-6.4,7-12.2,15.5-17.4,25.6l-0.6,5.7&#10;&#9;&#9;c-1.3,12.6-2.6,25.4-4.2,38.6c0,0.1,0,0.3,0,0.4c-1.6,13.7-3.6,27.8-6,42.1c6.6-10.2,13.7-19.1,21.2-26.9&#10;&#9;&#9;c11.1-11.4,23.3-20.4,36.6-26.7c1.5-0.7,3.3-0.1,4.1,1.4c0.7,1.5,0.1,3.3-1.4,4.1c-12.6,6.1-24.2,14.6-34.8,25.5&#10;&#9;&#9;c-10.6,10.9-20.2,24.2-28.8,39.9c-3.7,18.9-8.5,38.2-14.9,57.6l0,0l0,0.1l0,0c-3.1,9.6-6.6,19.2-10.5,28.8&#10;&#9;&#9;c9.2-7.9,19-14.7,29.3-20.5c14.4-8,29.9-14,46.5-17.8c1.6-0.4,3.3,0.6,3.7,2.3c0.4,1.6-0.6,3.3-2.3,3.7c-16,3.7-31,9.4-44.9,17.2&#10;&#9;&#9;c-13.7,7.7-26.5,17.3-38.2,28.9c-2.9,6.4-6,12.8-9.3,19.2l-6.7-0.3c11.1-21.1,19.7-42.2,26.5-63.1c1.1-14.9-0.6-29.7-5.3-44.5&#10;&#9;&#9;c-4.7-15-12.4-30.1-23.2-45.2c-1-1.4-0.6-3.3,0.7-4.2c1.4-1,3.3-0.6,4.2,0.7c11.1,15.6,19.1,31.3,24,46.9&#10;&#9;&#9;c2.8,8.9,4.6,17.8,5.4,26.7c9.1-33,14.2-65.2,17.9-96c-3.6-13-7.6-24.1-12-33.1c-4.4-9-9.1-15.9-14.3-20.8&#10;&#9;&#9;c-1.2-1.2-1.3-3.1-0.1-4.3c1.2-1.2,3.1-1.3,4.3-0.1c5.7,5.4,10.9,12.9,15.6,22.5c2.9,6,5.7,12.8,8.2,20.5c0.9-8.1,1.7-16.1,2.5-24&#10;&#9;&#9;l0.6-6.1c0-0.1,0-0.2,0-0.3C1579.1,1247.6,1583.5,1209.6,1595.9,1177.3z" clip-rule="evenodd" class="colorfff svgShape"/><path fill="#c4d6f3" fill-rule="evenodd" d="M1577.1,1430.7c10.6-5.7,23.3-8.7,30.7-18.2c8.7-11.2,7-27.6,14.3-39.7c9.2-15.3,29.3-19.2,43.8-29.6&#10;&#9;&#9;c14.2-10.2,12.2-16.5,19.8-32.2c11.4-23.7,44.3-45.8,67.2-26.4c23.3,19.7,8.3,42.8-4.4,59.6c-9.1,11.9-7.7,14.8-10.1,29.6&#10;&#9;&#9;c-2.9,17.9,3.2,38.9-8.9,52.4c-7.4,8.4-19.8,10.9-27.4,19.1c-8.6,9.3-8.9,23.3-12,35.6c-4.1,16.6-11.4,29.8-22.9,40.5&#10;&#9;&#9;c-30.4-2.1-65.7-4-105.1-5.7c-3.5-4.7-6.3-9.9-8.2-15.5C1545.3,1475.8,1553.3,1443.5,1577.1,1430.7z" clip-rule="evenodd" class="colorc4def3 svgShape"/><path fill="#ffffff" fill-rule="evenodd" d="M1731.4 1301.3c.9-.9 2.3-.9 3.3-.1.9.9.9 2.3.1 3.3-4.4 4.6-8.6 9.6-12.7 14.9.8-.3 1.7-.6 2.6-.8 3.9-1.1 8-1.7 12.4-1.9 1.3 0 2.3.9 2.4 2.2 0 1.3-.9 2.3-2.2 2.4-4 .2-7.8.7-11.3 1.7-3.3.9-6.4 2.2-9.3 3.9-8.2 11.8-15.9 25-23.7 39 4.1-2.8 8.2-5.1 12.2-6.9 7.1-3.2 14.2-5 21.3-5.4 1.3-.1 2.4.9 2.4 2.2.1 1.3-.9 2.4-2.2 2.4-6.5.4-13.1 2.1-19.7 5-6.5 3-13.1 7.2-19.7 12.7l-2.1 3.8c-4.6 8.4-9.4 16.9-14.4 25.6 0 .1-.1.2-.1.3-5.2 9.1-10.7 18.3-16.6 27.5 7.6-5.1 15.2-9.3 22.8-12.5 11.1-4.7 22.3-7.3 33.4-7.8 1.3-.1 2.4.9 2.4 2.2.1 1.3-.9 2.4-2.2 2.4-10.6.5-21.2 3-31.8 7.4-10.6 4.5-21.2 10.9-31.9 19.3-8.2 12.1-17.2 24.1-27.4 35.7l0 0 0 0 0 0c-5 5.7-10.3 11.4-15.9 16.9 8.8-2.8 17.6-4.6 26.5-5.6 12.4-1.3 25-.9 37.6 1.4 1.3.2 2.1 1.4 1.9 2.7-.2 1.3-1.4 2.1-2.7 1.9-12.3-2.2-24.4-2.6-36.3-1.3-11.8 1.3-23.6 4.2-35.2 8.8-4.4 4-8.9 8-13.6 11.8l-6.9-.3c15.6-12.3 29.1-25.5 41-39.1 5.2-10 8.4-20.9 9.5-32.6 1.2-11.9.3-24.7-2.7-38.4-.3-1.2.5-2.5 1.8-2.7 1.2-.3 2.5.5 2.7 1.8 3.1 14.2 4 27.4 2.8 39.8-.7 7-2.1 13.8-4.1 20.2 16.1-20.3 29.2-41.2 40.9-61.6 1.4-10.1 1.9-19 1.5-26.6-.4-7.6-1.7-13.8-3.8-18.7-.5-1.2 0-2.5 1.2-3 1.2-.5 2.5 0 3 1.2 2.4 5.4 3.8 12.2 4.2 20.3.3 5 .1 10.6-.3 16.7 3-5.4 6-10.7 8.9-16l2.3-4.1c0-.1.1-.1.1-.2C1698.9 1345.4 1713.2 1320.2 1731.4 1301.3zM940 671c-2.8 39.1-8.6 44.5-45.9 47.5 37.3 3 43 8.4 45.9 47.5 2.8-39.1 8.6-44.5 45.9-47.5C948.6 715.5 942.9 710.1 940 671L940 671zM1091.5 774.1c-1.5 20.9-4.6 23.7-24.5 25.3 19.9 1.6 23 4.5 24.5 25.3 1.5-20.9 4.6-23.7 24.5-25.3C1096.1 797.8 1093 794.9 1091.5 774.1L1091.5 774.1zM1025.2 613.5c-1.5 21.1-4.7 24-24.8 25.7 20.1 1.6 23.3 4.5 24.8 25.7 1.5-21.1 4.7-24 24.8-25.7C1029.8 637.5 1026.7 634.6 1025.2 613.5zM885.1 1311.7c2.3 31.7 7 36 37.2 38.5-30.2 2.4-34.9 6.8-37.2 38.5-2.3-31.7-7-36-37.2-38.5C878.1 1347.7 882.8 1343.4 885.1 1311.7L885.1 1311.7zM762.4 1395.2c1.2 16.9 3.7 19.2 19.8 20.5-16.1 1.3-18.6 3.6-19.8 20.5-1.2-16.9-3.7-19.2-19.8-20.5C758.7 1414.4 761.2 1412.1 762.4 1395.2L762.4 1395.2zM816.1 1265.1c1.2 17.1 3.8 19.5 20.1 20.8-16.3 1.3-18.8 3.7-20.1 20.8-1.2-17.1-3.8-19.5-20.1-20.8C812.4 1284.6 814.9 1282.2 816.1 1265.1zM1367.3 1233.7c-1.8 24.2-5.3 27.6-28.5 29.5 23.1 1.9 26.7 5.2 28.5 29.4 1.8-24.2 5.3-27.6 28.5-29.4C1372.6 1261.2 1369.1 1257.9 1367.3 1233.7L1367.3 1233.7zM1461.2 1297.6c-.9 12.9-2.9 14.7-15.2 15.7 12.3 1 14.2 2.8 15.2 15.7.9-12.9 2.9-14.7 15.2-15.7C1464.1 1312.3 1462.2 1310.5 1461.2 1297.6L1461.2 1297.6zM1420.1 1198c-1 13.1-2.9 14.9-15.4 15.9 12.5 1 14.4 2.8 15.4 15.9 1-13.1 2.9-14.9 15.4-15.9C1423 1212.9 1421.1 1211.1 1420.1 1198z" clip-rule="evenodd" class="colorfff svgShape"/><path fill="#bcd1f3" fill-rule="evenodd" d="M1202.2,607.5l-15.4,8.9c-5.2,3-7,9.7-3.9,14.9l3.4,5.8c4,6.9,2.3,10,1,11.1c-3.4,3.1-6.6,6.4-9.8,9.7&#10;&#9;c-0.9,1-3.9,4.3-11.7-0.2l-5.4-3.1c-5.2-3-11.9-1.2-14.9,3.9l-8.9,15.4c-3,5.2-1.2,11.9,3.9,14.9l5.3,3.1c7.3,4.3,7.1,6.4,6.2,9.6&#10;&#9;c-1.3,4.3-2.6,8.5-3.6,13c-0.8,3.9-0.5,6.7-10.4,6.7h-6.1c-6,0-10.9,4.9-10.9,10.9v17.8c0,6,4.9,10.9,10.9,10.9h6.1&#10;&#9;c10,0,9.6,2.8,10.4,6.7c0.9,4.4,2.3,8.7,3.6,13c0.9,3.1,1.1,5.3-6.2,9.6l-5.3,3.1c-5.2,3-7,9.7-3.9,14.9l8.9,15.4&#10;&#9;c3,5.2,9.7,7,14.9,3.9l5.4-3.1c7.8-4.5,10.8-1.2,11.7-0.2c3.2,3.3,6.4,6.6,9.8,9.7c1.2,1.1,3,4.2-1,11.1l-3.4,5.8&#10;&#9;c-3,5.2-1.2,11.9,3.9,14.9l15.4,8.9c5.2,3,11.9,1.2,14.9-3.9l3.4-5.8c4.1-7,8.1-6.7,9.8-6.2c4.9,1.6,9.4,2.6,14.5,3.9&#10;&#9;c1.8,0.5,5,1.8,5,10.2v6.2c0,6,4.9,10.9,10.9,10.9h17.8c6,0,10.9-4.9,10.9-10.9v-6.2c0-8.3,3.2-9.7,5-10.2c5.1-1.3,9.6-2.3,14.5-3.9&#10;&#9;c1.7-0.5,5.7-0.8,9.8,6.2l3.4,5.8c3,5.2,9.7,7,14.9,3.9l15.4-8.9c5.2-3,7-9.7,3.9-14.9l-3.4-5.8c-4-6.9-2.3-10-1-11.1&#10;&#9;c3.4-3.1,6.6-6.4,9.8-9.7c0.9-1,3.9-4.3,11.7,0.2l5.4,3.1c5.2,3,11.9,1.2,14.9-3.9l8.9-15.4c3-5.2,1.2-11.9-3.9-14.9l-5.3-3.1&#10;&#9;c-7.3-4.3-7.1-6.4-6.2-9.6c1.3-4.3,2.6-8.5,3.6-13c0.8-3.9,0.5-6.7,10.4-6.7h6.1c6,0,10.9-4.9,10.9-10.9v-17.8&#10;&#9;c0-6-4.9-10.9-10.9-10.9h-6.1c-10,0-9.6-2.8-10.4-6.7c-0.9-4.4-2.3-8.7-3.6-13c-0.9-3.1-1.1-5.3,6.2-9.6l5.3-3.1&#10;&#9;c5.2-3,7-9.7,3.9-14.9l-8.9-15.4c-3-5.2-9.7-7-14.9-3.9l-5.4,3.1c-7.8,4.5-10.8,1.2-11.7,0.2c-3.2-3.3-6.4-6.6-9.8-9.7&#10;&#9;c-1.2-1.1-3-4.2,1-11.1l3.4-5.8c3-5.2,1.2-11.9-3.9-14.9l-15.4-8.9c-5.2-3-11.9-1.2-14.9,3.9l-3.4,5.8c-4.1,7-8.1,6.7-9.8,6.2&#10;&#9;c-4.9-1.6-9.4-2.6-14.5-3.9c-1.8-0.5-5-1.8-5-10.2v-6.2c0-6-4.9-10.9-10.9-10.9h-17.8c-6,0-10.9,4.9-10.9,10.9v6.2&#10;&#9;c0,8.3-3.2,9.7-5,10.2c-5.1,1.3-9.6,2.3-14.5,3.9c-1.7,0.5-5.7,0.8-9.8-6.2l-3.4-5.8C1214.1,606.3,1207.4,604.5,1202.2,607.5&#10;&#9;L1202.2,607.5z M1269.5,717.5c13,0,23.5,10.5,23.5,23.5s-10.5,23.5-23.5,23.5c-13,0-23.5-10.5-23.5-23.5S1256.5,717.5,1269.5,717.5&#10;&#9;L1269.5,717.5z M1195.9,741c0-2.8,2.2-5,5-5c2.8,0,5,2.2,5,5c0,17.6,7.1,33.4,18.6,45c11.5,11.5,27.4,18.6,45,18.6c2.8,0,5,2.2,5,5&#10;&#9;c0,2.8-2.3,5-5,5c-20.3,0-38.7-8.2-52.1-21.6C1204.1,779.7,1195.9,761.3,1195.9,741L1195.9,741z M1342.2,729.2&#10;&#9;c0.4,2.7-1.4,5.3-4.2,5.7c-2.7,0.4-5.3-1.4-5.7-4.2c-2.2-13.3-8.5-25.3-17.6-34.4c-9.1-9.2-21-15.6-34.3-17.9&#10;&#9;c-2.7-0.5-4.6-3.1-4.1-5.8c0.5-2.7,3.1-4.6,5.8-4.1c15.4,2.7,29.2,10.1,39.7,20.7C1332.3,699.9,1339.7,713.7,1342.2,729.2&#10;&#9;L1342.2,729.2z M1269.5,653.8c48.2,0,87.2,39.1,87.2,87.2c0,48.2-39.1,87.2-87.2,87.2c-48.2,0-87.2-39.1-87.2-87.2&#10;&#9;C1182.3,692.8,1221.3,653.8,1269.5,653.8z" clip-rule="evenodd" class="colorbcdbf3 svgShape"/><path fill="#97b5e7" fill-rule="evenodd" d="M1454.4,825.6v566c0,8.8-7.2,15.9-15.9,15.9H578.7c-8.8,0-15.9-7.2-15.9-15.9v-566c0-8.8,7.2-15.9,15.9-15.9&#10;&#9;h859.8C1447.2,809.7,1454.4,816.8,1454.4,825.6L1454.4,825.6z M1388.1,1391.6v-566c0-2.6-2.1-4.7-4.7-4.7H578.7&#10;&#9;c-2.6,0-4.7,2.1-4.7,4.7v566c0,2.6,2.1,4.7,4.7,4.7h804.7C1385.9,1396.3,1388.1,1394.2,1388.1,1391.6z" clip-rule="evenodd" class="color97c1e7 svgShape"/><path fill="#ffffff" fill-rule="evenodd" d="M1388.1,825.6v566c0,2.6-2.1,4.7-4.7,4.7H578.7c-2.6,0-4.7-2.1-4.7-4.7v-566c0-2.6,2.1-4.7,4.7-4.7h804.7&#10;&#9;C1385.9,820.9,1388.1,823,1388.1,825.6z" clip-rule="evenodd" class="colorfff svgShape"/><path fill="#a4bfec" fill-rule="evenodd" d="M1434.5,825.6v566c0,2.6-2.1,4.7-4.7,4.7H578.7c-2.6,0-4.7-2.1-4.7-4.7v-566c0-2.6,2.1-4.7,4.7-4.7h804.7&#10;&#9;C1385.9,820.9,1434.5,823,1434.5,825.6z" clip-rule="evenodd" class="colora4ccec svgShape"/><rect width="850.7" height="565.6" x="578.8" y="825.8" fill="#eef4fd" fill-rule="evenodd" clip-rule="evenodd" class="coloreef8fd svgShape"/><rect width="42.9" height="565.6" x="578.8" y="825.8" fill="#bcd1f3" fill-rule="evenodd" clip-rule="evenodd" class="colorbcdbf3 svgShape"/><path fill="#ffffff" fill-rule="evenodd" d="M594.1,1290.9c0,4.4,3.5,7.9,7.9,7.9s7.9-3.5,7.9-7.9c0-4.4-3.5-7.9-7.9-7.9S594.1,1286.5,594.1,1290.9&#10;&#9;L594.1,1290.9z M594.1,1364c0,4.4,3.5,7.9,7.9,7.9s7.9-3.5,7.9-7.9s-3.5-7.9-7.9-7.9S594.1,1359.6,594.1,1364L594.1,1364z&#10;&#9; M594.1,1327.4c0,4.4,3.5,7.9,7.9,7.9s7.9-3.5,7.9-7.9c0-4.4-3.5-7.9-7.9-7.9S594.1,1323,594.1,1327.4z" clip-rule="evenodd" class="colorfff svgShape"/><path fill="#97b5e7" fill-rule="evenodd" d="M639.5 1411.8h130c1.7 0 3-1.3 3-3v0c0-1.7-1.3-3-3-3h-130c-1.7 0-3 1.3-3 3v0C636.5 1410.5 637.8 1411.8 639.5 1411.8zM780 1411.8h130c1.7 0 3-1.3 3-3v0c0-1.7-1.3-3-3-3H780c-1.7 0-3 1.3-3 3v0C777 1410.5 778.3 1411.8 780 1411.8zM753.4 810.4h130c1.7 0 3-1.4 3-3v0c0-1.7-1.3-3-3-3h-130c-1.7 0-3 1.3-3 3v0C750.4 809 751.7 810.4 753.4 810.4z" clip-rule="evenodd" class="color97c1e7 svgShape"/><path fill="#ffffff" fill-rule="evenodd" d="M606.3 1421.9l-7.1 4.1c-2.4 1.4-3.2 4.5-1.8 6.9l1.6 2.7c1.9 3.2 1 4.6.5 5.2-1.6 1.4-3.1 3-4.5 4.5-.4.5-1.8 2-5.4-.1l-2.5-1.4c-2.4-1.4-5.5-.6-6.9 1.8l-4.1 7.1c-1.4 2.4-.6 5.5 1.8 6.9l2.5 1.4c3.4 2 3.3 3 2.9 4.4-.6 2-1.2 4-1.7 6-.4 1.8-.2 3.1-4.8 3.1h-2.8c-2.8 0-5.1 2.3-5.1 5.1v8.3c0 2.8 2.3 5.1 5.1 5.1h2.8c4.6 0 4.5 1.3 4.8 3.1.4 2 1.1 4 1.7 6 .4 1.4.5 2.5-2.9 4.4l-2.5 1.4c-2.4 1.4-3.2 4.5-1.8 6.9l4.1 7.1c1.4 2.4 4.5 3.2 6.9 1.8l2.5-1.4c3.6-2.1 5-.6 5.4-.1 1.5 1.5 2.9 3.1 4.5 4.5.6.5 1.4 2-.5 5.2l-1.6 2.7c-1.4 2.4-.6 5.5 1.8 6.9l7.1 4.1c2.4 1.4 5.5.6 6.9-1.8l1.6-2.7c1.9-3.2 3.7-3.1 4.5-2.9 2.3.7 4.4 1.2 6.7 1.8.9.2 2.3.8 2.3 4.7v2.9c0 2.8 2.3 5.1 5.1 5.1h8.2c2.8 0 5.1-2.3 5.1-5.1v-2.9c0-3.9 1.5-4.5 2.3-4.7 2.3-.6 4.4-1.1 6.7-1.8.8-.2 2.6-.4 4.5 2.9l1.6 2.7c1.4 2.4 4.5 3.2 6.9 1.8l7.1-4.1c2.4-1.4 3.2-4.5 1.8-6.9l-1.6-2.7c-1.9-3.2-1-4.6-.5-5.2 1.6-1.4 3.1-3 4.5-4.5.4-.5 1.8-2 5.4.1l2.5 1.4c2.4 1.4 5.5.6 6.9-1.8l4.1-7.1c1.4-2.4.6-5.5-1.8-6.9l-2.5-1.4c-3.4-2-3.3-3-2.9-4.4.6-2 1.2-4 1.7-6 .4-1.8.2-3.1 4.8-3.1h2.8c2.8 0 5.1-2.3 5.1-5.1v-8.3c0-2.8-2.3-5.1-5.1-5.1h-2.8c-4.6 0-4.5-1.3-4.8-3.1-.4-2-1.1-4-1.7-6-.4-1.4-.5-2.5 2.9-4.4l2.5-1.4c2.4-1.4 3.2-4.5 1.8-6.9l-4.1-7.1c-1.4-2.4-4.5-3.2-6.9-1.8l-2.5 1.4c-3.6 2.1-5 .6-5.4.1-1.5-1.5-2.9-3.1-4.5-4.5-.6-.5-1.4-2 .5-5.2l1.6-2.7c1.4-2.4.6-5.5-1.8-6.9l-7.1-4.1c-2.4-1.4-5.5-.6-6.9 1.8l-1.6 2.7c-1.9 3.2-3.7 3.1-4.5 2.9-2.3-.7-4.4-1.2-6.7-1.8-.9-.2-2.3-.8-2.3-4.7v-2.9c0-2.8-2.3-5.1-5.1-5.1h-8.2c-2.8 0-5.1 2.3-5.1 5.1v2.9c0 3.9-1.5 4.5-2.3 4.7-2.3.6-4.4 1.1-6.7 1.8-.8.2-2.6.4-4.5-2.9l-1.6-2.7C611.8 1421.3 608.7 1420.5 606.3 1421.9L606.3 1421.9zM637.6 1472.9c6 0 10.9 4.9 10.9 10.9s-4.9 10.9-10.9 10.9c-6 0-10.9-4.9-10.9-10.9S631.5 1472.9 637.6 1472.9L637.6 1472.9zM603.4 1483.8c0-1.3 1-2.3 2.3-2.3 1.3 0 2.3 1 2.3 2.3 0 8.1 3.3 15.5 8.6 20.9 5.3 5.3 12.7 8.6 20.9 8.6 1.3 0 2.3 1 2.3 2.3 0 1.3-1 2.3-2.3 2.3-9.4 0-18-3.8-24.1-10C607.2 1501.7 603.4 1493.2 603.4 1483.8L603.4 1483.8zM671.3 1478.3c.2 1.3-.7 2.5-1.9 2.7-1.3.2-2.5-.7-2.7-1.9-1-6.2-3.9-11.7-8.1-16-4.2-4.3-9.7-7.2-15.9-8.3-1.3-.2-2.1-1.4-1.9-2.7.2-1.3 1.4-2.1 2.7-1.9 7.1 1.2 13.5 4.7 18.4 9.6C666.7 1464.7 670.1 1471.1 671.3 1478.3L671.3 1478.3zM637.6 1443.3c22.3 0 40.5 18.1 40.5 40.5 0 22.3-18.1 40.5-40.5 40.5-22.3 0-40.5-18.1-40.5-40.5C597.1 1461.4 615.2 1443.3 637.6 1443.3zM845.2 874.2h283.6c2.5 0 4.6 2.1 4.6 4.6v61.9c0 2.5-2.1 4.6-4.6 4.6H845.2c-2.5 0-4.6-2.1-4.6-4.6v-61.9C840.6 876.2 842.7 874.2 845.2 874.2z" clip-rule="evenodd" class="colorfff svgShape"/><path fill="#97b5e7" fill-rule="evenodd" d="M845.2,872.5h283.6c1.7,0,3.3,0.7,4.4,1.8c1.1,1.1,1.8,2.7,1.8,4.4v61.9c0,1.7-0.7,3.3-1.8,4.4&#10;&#9;c-1.1,1.1-2.7,1.8-4.4,1.8H845.2c-1.7,0-3.3-0.7-4.4-1.8c-1.1-1.1-1.8-2.7-1.8-4.4v-61.9c0-1.7,0.7-3.3,1.8-4.4&#10;&#9;S843.5,872.5,845.2,872.5L845.2,872.5z M1128.8,875.8H845.2c-0.8,0-1.5,0.3-2.1,0.9c-0.5,0.5-0.9,1.3-0.9,2.1v61.9&#10;&#9;c0,0.8,0.3,1.5,0.9,2.1c0.5,0.5,1.3,0.9,2.1,0.9h283.6c0.8,0,1.5-0.3,2.1-0.9c0.5-0.5,0.9-1.3,0.9-2.1v-61.9c0-0.8-0.3-1.5-0.9-2.1&#10;&#9;C1130.4,876.2,1129.6,875.8,1128.8,875.8z" clip-rule="evenodd" class="color97c1e7 svgShape"/><path fill="#4285f4" fill-rule="evenodd" d="M859.5,937.9l8.3-0.3l-0.6-17.6l2.8-0.1c3.9-0.1,5.7,1.6,7.1,7.1c1.2,5.2,2.4,8.9,3,10.2l8.6-0.3&#10;&#9;c-0.9-1.6-2.2-6.7-3.6-11.8c-1.2-4.4-2.9-7.2-6-8.3l0-0.2c4-1.7,7.3-5.7,7.1-11c-0.4-11.6-11.4-11.9-16.9-11.7&#10;&#9;c-4.2,0.1-8.3,0.7-11.1,1.3L859.5,937.9L859.5,937.9z M866.6,900.7c0.7-0.2,2-0.4,3.8-0.5c3-0.1,7.2,0.8,7.4,6.4&#10;&#9;c0.1,4.1-2.6,7-7.4,7.1l-3.4,0.1L866.6,900.7L866.6,900.7z M902.2,929.5l-0.4-12l14.1-0.5l-0.2-6.8l-14.1,0.5l-0.3-10.5l15-0.5&#10;&#9;l-0.2-7l-23.3,0.8l1.4,43.3l24.2-0.8l-0.2-7L902.2,929.5L902.2,929.5z M941.1,911.1l0.2,6.6l6.3-0.2l0.3,10.6&#10;&#9;c-0.7,0.4-2.2,0.7-4.3,0.8c-7.2,0.2-12.7-4.7-13-14.7c-0.3-10.5,5.4-15.4,13.1-15.7c3.8-0.1,6.3,0.5,8.3,1.3l1.5-6.9&#10;&#9;c-2.1-0.9-5.8-1.6-10.2-1.5c-12.4,0.4-21.9,8.6-21.4,23.2c0.2,6.9,2.6,12.7,6.4,16.3c3.8,3.5,8.8,5,15.4,4.8&#10;&#9;c4.9-0.2,9.8-1.5,12.3-2.5l-0.7-22.5L941.1,911.1L941.1,911.1z M971.8,934.2l-1.4-43.3l-8.3,0.3l1.4,43.3L971.8,934.2L971.8,934.2z&#10;&#9; M978.3,932.2c2.1,1.2,6.4,2.2,10.7,2.1c10.1-0.3,15.6-6,15.3-13.6c-0.2-5.7-3.4-9.6-10.4-12.5c-5.4-2.2-7.6-3.6-7.7-6.7&#10;&#9;c-0.1-2.4,1.8-4.9,6.2-5c3.5-0.1,6.2,0.9,7.8,1.6l1.5-6.9c-2.1-0.9-5.2-1.8-9.4-1.7c-9.3,0.3-14.7,6-14.5,13&#10;&#9;c0.2,5.6,4.4,9.6,11,12.2c4.9,1.9,7,3.7,7.1,6.8c0.1,3.2-2.2,5.5-6.9,5.6c-3.5,0.1-7.1-0.8-9.4-2.1L978.3,932.2L978.3,932.2z&#10;&#9; M1006.2,889.8l0.2,7.2l10.6-0.3l1.2,36.1l8.3-0.3l-1.2-36.1l10.7-0.4l-0.2-7.2L1006.2,889.8L1006.2,889.8z M1050.3,924.7l-0.4-12&#10;&#9;l14.1-0.5l-0.2-6.8l-14.1,0.5l-0.3-10.5l15-0.5l-0.2-7l-23.3,0.8l1.4,43.3l24.2-0.8l-0.2-7L1050.3,924.7L1050.3,924.7z&#10;&#9; M1072.8,930.9l8.3-0.3l-0.6-17.6l2.8-0.1c3.9-0.1,5.7,1.6,7.1,7.1c1.2,5.2,2.4,8.9,3,10.2l8.6-0.3c-0.9-1.6-2.2-6.8-3.6-11.8&#10;&#9;c-1.2-4.4-2.9-7.2-6-8.3l0-0.2c4-1.7,7.3-5.7,7.1-11c-0.4-11.6-11.4-11.9-16.9-11.7c-4.2,0.1-8.3,0.7-11.1,1.3L1072.8,930.9&#10;&#9;L1072.8,930.9z M1079.9,893.7c0.7-0.3,2-0.4,3.8-0.5c3-0.1,7.2,0.8,7.4,6.4c0.1,4.1-2.6,7-7.4,7.1l-3.4,0.1L1079.9,893.7z" clip-rule="evenodd" class="color5e9bd3 svgShape"/><path fill="#97b5e7" fill-rule="evenodd" d="M833.6 1059.3l44-.3.3 44-44 .3L833.6 1059.3 833.6 1059.3zM834.1 1130.8l44-.3.3 44-44 .3L834.1 1130.8zM907.1 1060.7l239-.3c4 0 7.3 3.3 7.3 7.3v0c0 4-3.3 7.3-7.3 7.3l-239 .3c-4 0-7.3-3.3-7.3-7.3v0C899.7 1064 903 1060.7 907.1 1060.7L907.1 1060.7zM907.2 1132.2l239-.3c4 0 7.3 3.3 7.3 7.3l0 0c0 4-3.3 7.3-7.3 7.3l-239 .3c-4 0-7.3-3.3-7.3-7.3l0 0C899.8 1135.5 903.1 1132.2 907.2 1132.2L907.2 1132.2zM907.2 1158.4l143.5-.2c4 0 7.3 3.3 7.3 7.3v0c0 4-3.3 7.3-7.3 7.3l-143.5.2c-4 0-7.3-3.3-7.3-7.3v0C899.9 1161.7 903.1 1158.4 907.2 1158.4L907.2 1158.4zM907.1 1086.9l143.5-.2c4 0 7.3 3.3 7.3 7.3l0 0c0 4-3.3 7.3-7.3 7.3l-143.5.2c-4 0-7.3-3.3-7.3-7.3l0 0C899.8 1090.2 903.1 1086.9 907.1 1086.9z" clip-rule="evenodd" class="color97c1e7 svgShape"/><path fill="#4285f4" fill-rule="evenodd" d="M849.1,1071.5c-0.9-2.1,0.1-4.6,2.2-5.5c2.1-0.9,4.6,0.1,5.5,2.2l7.5,17.3l27.2-28.3c1.6-1.7,4.3-1.7,5.9-0.1&#10;&#9;&#9;c1.7,1.6,1.7,4.2,0.1,5.9l-31.4,32.7c-0.4,0.5-0.9,0.8-1.5,1.1c-2.1,0.9-4.6-0.1-5.5-2.2L849.1,1071.5L849.1,1071.5z M839.2,1142.3&#10;&#9;&#9;c-0.9-2.1,0.1-4.6,2.2-5.5c2.1-0.9,4.6,0.1,5.5,2.2l7.5,17.3l27.2-28.3c1.6-1.7,4.3-1.7,5.9-0.1c1.7,1.6,1.7,4.3,0.1,5.9&#10;&#9;&#9;l-31.4,32.7c-0.4,0.5-0.9,0.8-1.5,1.1c-2.1,0.9-4.6-0.1-5.5-2.2L839.2,1142.3z" clip-rule="evenodd" class="color5e9bd3 svgShape"/><path fill="#ffffff" fill-rule="evenodd" d="M888.4,956.4h197.2c17,0,30.8,13.9,30.8,30.8v0c0,17-13.9,30.8-30.8,30.8H888.4c-17,0-30.8-13.9-30.8-30.8v0&#10;&#9;C857.6,970.2,871.4,956.4,888.4,956.4z" clip-rule="evenodd" class="colorfff svgShape"/><path fill="#97b5e7" fill-rule="evenodd" d="M888.4,954.3h197.2c9,0,17.3,3.7,23.2,9.7l0,0c6,6,9.7,14.2,9.7,23.2v0c0,9-3.7,17.3-9.7,23.2v0&#10;&#9;c-6,6-14.2,9.7-23.2,9.7H888.4c-9,0-17.3-3.7-23.2-9.7c-6-6-9.7-14.2-9.7-23.2v0c0-9,3.7-17.3,9.7-23.2h0&#10;&#9;C871.1,958,879.4,954.3,888.4,954.3L888.4,954.3z M1085.6,958.4H888.4c-7.9,0-15.1,3.2-20.3,8.4l0,0c-5.2,5.2-8.4,12.4-8.4,20.3v0&#10;&#9;c0,7.9,3.2,15.1,8.4,20.3c5.2,5.2,12.4,8.4,20.3,8.4h197.2c7.9,0,15.1-3.2,20.3-8.4l0,0c5.2-5.2,8.4-12.4,8.4-20.3v0&#10;&#9;c0-7.9-3.2-15.1-8.4-20.3C1100.7,961.7,1093.5,958.4,1085.6,958.4z" clip-rule="evenodd" class="color97c1e7 svgShape"/><path fill="#97b5e7" fill-rule="evenodd" d="M901.9,985.3l-3.2-8.4l-4.6,2.6l5.8,7.1l0,0.1l-8.5-1.5v5.2l8.6-1.5l0.1,0.1l-5.9,7.1l4.4,2.7l3.4-8.5l0.1-0.1&#10;&#9;l3.3,8.6l4.7-2.6l-5.9-6.9l0.1-0.2l8.8,1.4v-5.2l-8.8,1.6v-0.2l5.9-7.1l-4.6-2.6l-3.2,8.5H901.9L901.9,985.3z M932.4,985.3l-3.2-8.4&#10;&#9;l-4.6,2.6l5.8,7.1l0,0.1l-8.5-1.5v5.2l8.6-1.5l0.1,0.1l-5.9,7.1l4.4,2.7l3.4-8.5l0.1-0.1l3.3,8.6l4.7-2.6l-5.9-6.9l0.1-0.2l8.8,1.4&#10;&#9;v-5.2l-8.8,1.6v-0.2l5.9-7.1l-4.6-2.6l-3.2,8.5H932.4L932.4,985.3z M962.9,985.3l-3.2-8.4l-4.6,2.6l5.8,7.1l0,0.1l-8.5-1.5v5.2&#10;&#9;l8.6-1.5l0.1,0.1l-5.9,7.1l4.4,2.7l3.4-8.5l0.1-0.1l3.3,8.6l4.7-2.6l-5.9-6.9l0.1-0.2l8.8,1.4v-5.2l-8.8,1.6v-0.2l5.9-7.1l-4.6-2.6&#10;&#9;l-3.2,8.5H962.9L962.9,985.3z M993.5,985.3l-3.2-8.4l-4.6,2.6l5.8,7.1l0,0.1l-8.5-1.5v5.2l8.6-1.5l0.1,0.1l-5.9,7.1l4.4,2.7l3.4-8.5&#10;&#9;l0.1-0.1l3.3,8.6l4.7-2.6l-5.9-6.9l0.1-0.2l8.8,1.4v-5.2l-8.8,1.6v-0.2l5.9-7.1l-4.6-2.6l-3.2,8.5H993.5L993.5,985.3z M1024,985.3&#10;&#9;l-3.2-8.4l-4.6,2.6l5.8,7.1l0,0.1l-8.5-1.5v5.2l8.6-1.5l0.1,0.1l-5.9,7.1l4.4,2.7l3.4-8.5l0.1-0.1l3.3,8.6l4.7-2.6l-5.9-6.9l0.1-0.2&#10;&#9;l8.8,1.4v-5.2l-8.8,1.6v-0.2l5.9-7.1l-4.6-2.6l-3.2,8.5H1024L1024,985.3z M1054.5,985.3l-3.2-8.4l-4.6,2.6l5.8,7.1l0,0.1l-8.5-1.5&#10;&#9;v5.2l8.6-1.5l0.1,0.1l-5.9,7.1l4.4,2.7l3.4-8.5l0.1-0.1l3.3,8.6l4.7-2.6l-5.9-6.9l0.1-0.2l8.8,1.4v-5.2l-8.8,1.6v-0.2l5.9-7.1&#10;&#9;l-4.6-2.6l-3.2,8.5H1054.5L1054.5,985.3z M1085,985.3l-3.2-8.4l-4.6,2.6l5.8,7.1l0,0.1l-8.5-1.5v5.2l8.6-1.5l0.1,0.1l-5.9,7.1&#10;&#9;l4.4,2.7l3.4-8.5l0.1-0.1l3.3,8.6l4.7-2.6l-5.9-6.9l0.1-0.2l8.8,1.4v-5.2l-8.8,1.6v-0.2l5.9-7.1l-4.6-2.6l-3.2,8.5H1085z" clip-rule="evenodd" class="color97c1e7 svgShape"/><path fill="#4285f4" fill-rule="evenodd" d="M756.9 1236.8c-1.5 0-2.8-1-2.8-2.3s1.2-2.3 2.8-2.3h503.3c1.5 0 2.8 1 2.8 2.3s-1.2 2.3-2.8 2.3H756.9zM756.9 1257.1c-1.5 0-2.8-1-2.8-2.3s1.2-2.3 2.8-2.3h503.3c1.5 0 2.8 1 2.8 2.3s-1.2 2.3-2.8 2.3H756.9zM756.9 1277.3c-1.5 0-2.8-1-2.8-2.3 0-1.3 1.2-2.3 2.8-2.3h503.3c1.5 0 2.8 1 2.8 2.3 0 1.3-1.2 2.3-2.8 2.3H756.9zM756.9 1297.5c-1.5 0-2.8-1-2.8-2.3 0-1.3 1.2-2.3 2.8-2.3h503.3c1.5 0 2.8 1 2.8 2.3 0 1.3-1.2 2.3-2.8 2.3H756.9zM756.9 1317.7c-1.5 0-2.8-1-2.8-2.3 0-1.3 1.2-2.3 2.8-2.3h503.3c1.5 0 2.8 1 2.8 2.3 0 1.3-1.2 2.3-2.8 2.3H756.9zM756.9 1337.9c-1.5 0-2.8-1-2.8-2.3 0-1.3 1.2-2.3 2.8-2.3h503.3c1.5 0 2.8 1 2.8 2.3 0 1.3-1.2 2.3-2.8 2.3H756.9zM756.9 1358.2c-1.5 0-2.8-1-2.8-2.3 0-1.3 1.2-2.3 2.8-2.3h503.3c1.5 0 2.8 1 2.8 2.3 0 1.3-1.2 2.3-2.8 2.3H756.9z" clip-rule="evenodd" class="color5e9bd3 svgShape"/><polygon fill="#97b5e7" fill-rule="evenodd" points="1085.5 874.2 1084.6 760.3 1034.6 745 1035.3 742.7 1086.1 758.3 1086.9 758.6 1086.9 759.5 1087.8 874.2" clip-rule="evenodd" class="color97c1e7 svgShape"/><path fill="#eef4fd" fill-rule="evenodd" d="M631.6,624.1h408.7c5.6,0,10.2,4.6,10.2,10.2v137.3c0,5.6-4.6,10.2-10.2,10.2H631.6c-5.6,0-10.2-4.6-10.2-10.2&#10;&#9;V634.3C621.4,628.6,625.9,624.1,631.6,624.1z" clip-rule="evenodd" class="coloreef8fd svgShape"/><path fill="#97b5e7" fill-rule="evenodd" d="M631.6,621.1h408.7c3.6,0,6.9,1.5,9.3,3.9c2.4,2.4,3.9,5.7,3.9,9.3v137.3c0,3.6-1.5,6.9-3.9,9.3&#10;&#9;c-2.4,2.4-5.7,3.9-9.3,3.9H631.6c-3.6,0-6.9-1.5-9.3-3.9l0,0c-2.4-2.4-3.9-5.7-3.9-9.3V634.3c0-3.6,1.5-6.9,3.9-9.3l0,0&#10;&#9;C624.7,622.6,627.9,621.1,631.6,621.1L631.6,621.1z M1040.2,627H631.6c-2,0-3.8,0.8-5.1,2.1c-1.3,1.3-2.1,3.1-2.1,5.1v137.3&#10;&#9;c0,2,0.8,3.8,2.1,5.1c1.3,1.3,3.1,2.1,5.1,2.1h408.7c2,0,3.8-0.8,5.1-2.1c1.3-1.3,2.1-3.1,2.1-5.1V634.3c0-2-0.8-3.8-2.1-5.1&#10;&#9;C1044,627.8,1042.2,627,1040.2,627z" clip-rule="evenodd" class="color97c1e7 svgShape"/><path fill="#ea4335" fill-rule="evenodd" d="M677,723.5l4.9-13.4l6.7-17.1c2.3-6.2,4.4-11.1,6.2-14.7c1.3-2.5,2-4.3,2-5.4c0-1.4-1.1-2.9-3.3-4.5&#10;&#9;c-1.4-1-2.2-1.9-2.2-2.6c0-0.9,1.5-2,4.4-3.1c2.5-1,5.3-1.9,8.6-2.7c3.2-0.8,5.8-1.2,7.8-1.2c4,0,6.9,1.1,9,3.2&#10;&#9;c2.4,2.4,5.3,9.9,8.7,22.5c1.4,5.1,3,10.1,4.7,14.8c1.7,4.8,3.1,8.2,4.3,10.3c0.3,0.8,1.2,2.2,2.6,4.4c1.6-5,3.4-11.5,5.5-19.5&#10;&#9;c3.1-12.7,6-21.2,8.6-25.7c0.8-1.4,1.7-2.7,2.8-3.7c1.9-1.8,4-3.2,6.3-4.1c2.2-0.9,4.5-1.4,6.8-1.4c1.4,0,2.3,0.4,2.9,1.1&#10;&#9;c0.5,0.7,0.8,2,0.8,3.8c0,1.4-0.1,2.4-0.3,3c-0.5,2.4-1.4,5.6-2.5,9.5c-1.2,3.9-2.9,8.9-5,15.1c-2.2,6.1-4.8,13.5-8,22.2l-1.1,2.6&#10;&#9;c-0.4,1.1-0.7,2.1-1,2.8c-5.7,15.9-10,26.3-13,31c-0.6,1-1.4,1.9-2.2,2.8c-1.5,1.5-2.9,2.2-4.3,2.2c-3.6,0-7.5-3.9-11.7-11.6&#10;&#9;c-7.6-13.8-13.6-28-18-42.6c-0.9-2.8-1.6-5.3-2.1-7.7h-0.3l-8.6,27c-0.1,0.5-0.3,1.1-0.6,1.8c-0.3,0.7-0.5,1.4-0.7,2.1&#10;&#9;c-0.2,0.5-0.4,1.1-0.7,1.7c-0.2,0.6-0.5,1.2-0.7,1.6c-1.6,4.7-2.8,8.2-3.8,10.6c-1,2.4-2,4.3-3,5.9c-0.8,1.5-2.1,3-3.7,4.7&#10;&#9;c-2.4,2.2-5.1,3.9-8,5.2c-2.9,1.3-5.8,1.9-8.7,1.9c-2.4,0-3.6-1-3.6-2.9c0-1.4,1.1-4,3.2-7.5c2.4-4.1,5.2-9.7,8.3-16.9&#10;&#9;C675.3,727.5,676,725.7,677,723.5L677,723.5z M823,680.1c-3.2,3.3-5.6,5.9-7.1,8c-1.5,2.1-3.1,5.1-4.8,9c-1.3,2.8-2.2,5.8-2.8,9&#10;&#9;c-0.7,2.8-1.1,6.4-1.1,10.8c0,6.2,0.6,11.3,1.8,15.5c1.2,4.1,2.9,7.2,5.2,9.3c2.3,2.1,5.1,3.1,8.3,3.1c2.7,0,5.4-1,8.1-2.9&#10;&#9;c2.8-1.9,5.2-4.5,7.5-7.6s4-6.6,5.4-10.5c1.4-3.9,2.1-7.6,2.1-11.2c0-6.5-2.2-13.2-6.6-20.2c-1.7-2.8-2.5-4.8-2.5-5.8&#10;&#9;c0-2,1.1-3.9,3.2-5.8c2.4-2.3,5.2-4.3,8.3-6.2c3.1-1.8,5.6-2.7,7.3-2.7c1,0,2.1,0.2,3.3,0.7c1.2,0.5,2.1,1.1,2.7,1.9&#10;&#9;c1.5,1.6,2.8,4.4,3.8,8.6c1,4.2,1.5,8.6,1.5,13.3c0,11.1-2.3,21.4-6.8,30.8c-4.5,9.4-10.7,16.9-18.5,22.4&#10;&#9;c-7.8,5.5-16.3,8.2-25.4,8.2c-5.2,0-10.4-1-15.6-2.9c-5.1-1.9-9.3-4.5-12.5-7.8c-5.4-5.4-8.1-12.5-8.1-21.3c0-5.1,1-10.5,3-16.2&#10;&#9;c2-5.7,4.7-11.3,8.2-16.7c3.5-5.4,7.5-10.3,12.1-14.8c4.5-4.5,9.2-8,14-10.6c4.4-2.3,9.1-4.2,14.2-5.7c5-1.4,9.5-2.1,13.3-2.1&#10;&#9;c5.4,0,8.1,0.8,8.1,2.5c0,0.7-0.6,1.7-1.7,3c-2.1,1.9-3.9,3.3-5.4,4.1c-1.5,0.8-4.1,1.7-7.5,2.7c-3.8,1.1-6.5,2.1-8.2,3.1&#10;&#9;C827.8,676.1,825.6,677.7,823,680.1L823,680.1z M923.3,715.3H923c-3.6,7.1-7.4,13.6-11.3,19.4c-4.7,7-8.6,12.2-11.8,15.5&#10;&#9;c-1.8,1.7-3.9,3.1-6.5,4.3c-2.6,1.3-4.9,1.9-6.7,1.9c-0.5,0-1.1-0.1-1.9-0.5c-0.8-0.3-1.4-0.7-1.9-1.3c-2.4-2.6-4.3-9.3-5.8-20&#10;&#9;c-1.5-10.7-2.2-23.8-2.2-39.1c0-12.4,0.9-20.7,2.8-24.8c0.7-1.7,1.8-3.2,3.2-4.3c1.4-1.1,3.5-2.2,6.3-3.3c2.5-1,5-1.8,7.6-2.5&#10;&#9;c2.6-0.7,4.7-1,6.2-1c1.3,0,2.4,0.3,3.1,1c0.8,0.7,1.2,1.6,1.2,2.8c0,0.5-0.1,1.1-0.3,1.9c-1,4.4-1.9,10.6-2.7,18.6&#10;&#9;c-0.6,5.3-1,9.6-1.3,12.9c-0.2,3.3-0.4,7.8-0.6,13.5c-0.2,5.7-0.3,11.3-0.3,16.9l0.3,0.3c2.1-2.8,4.4-6,6.8-9.9&#10;&#9;c0.8-1.4,1.7-2.7,2.5-4c0.8-1.2,1.7-2.7,2.6-4.3c2.2-3.9,4.1-7.7,5.8-11.3c0.9-1.7,1.6-3.4,2.3-5.2c7.1-15.8,12.1-24.9,15-27.4&#10;&#9;c1.3-1.2,3.7-2.3,7.2-3.4c3.5-1.1,6.7-1.6,9.4-1.6c1.8,0,3.3,0.4,4.5,1.2c1.2,0.8,1.8,1.9,1.8,3.3c0,1.2-0.6,3.7-1.9,7.4&#10;&#9;c-2.4,7.1-4.4,14.9-5.9,23.4c-1.5,8.4-2.3,16-2.3,22.6c0,13.5,2.6,20.2,7.9,20.2c1.5,0,3-1.1,4.6-3.4c1.5-2.2,2.9-5.1,4-8.6&#10;&#9;c1.1-3.5,2-7.6,2.8-12.2c0.7-4.7,1.1-9.4,1.1-14.3c0-2.9-0.1-6.4-0.4-10.4c-0.1-1.1-0.1-2.1-0.1-3c0-5.2,2.8-10.4,8.6-15.7&#10;&#9;c2.8-2.7,4.9-4,6.3-4c3.3,0,4.9,6.1,4.9,18.4c0,8.7-0.9,17.1-2.8,25.1c-2.4,9.6-5.6,17.7-9.8,24.4c-2.2,3.6-4.8,7.1-7.8,10.5&#10;&#9;c-3,3.4-5.9,6-8.9,8.1c-3.7,2.6-7.7,3.9-11.9,3.9c-7.7,0-13.5-3-17.2-9c-3.8-6-5.7-15.3-5.7-27.9V715.3z" clip-rule="evenodd" class="colorf5916f svgShape"/><g fill="#000000" class="color000 svgShape"><path fill="#97b5e7" fill-rule="evenodd" d="M1294.5,1019.9c-7.7-7.2-29.2-15.2-42-19.1c-13.4-1.7-28-2.5-43.9-2.2c-26.8-0.3-55.7,0-86.6,0.8&#10;&#9;&#9;c2.9-13,3.1-32.3,0.8-57.9c-4.8-2.3-10.8-2.9-17.9-1.8c-10.1,53.7-7.7,78.6,0.4,90.9c22.9,6.2,44.9,9.5,61.7,11.2&#10;&#9;&#9;c4.8,30.8,8.4,60.5,10.9,89.1c-5.1,30.1-7.5,50.6-7.3,61.5c47,7,84.8,7.1,113.3,0.6c-0.8-8.6-4.4-20.7-6.5-30&#10;&#9;&#9;c3.1-38.6,8.1-63.7,10.7-81.6c17,34.3,32,52.1,45,53.4c11.1-2.2,23-29.2,35.8-80.8c-3.7-5.3-8.7-7.4-14.8-6.4&#10;&#9;&#9;c-14.1,20.8-22.2,35.8-24.3,45.2C1319.7,1059.2,1309.6,1039.2,1294.5,1019.9z" clip-rule="evenodd" class="color97c1e7 svgShape"/><path fill="#fbbc05" fill-rule="evenodd" d="M1214.6,993.6c2.9-1.4,18.6-1.1,34.3,2.2c-1.7-2.5-3-5.9-4-9.9c-28-4.2-25.3-11.1-24.2-14.3&#10;&#9;&#9;c5.7-15,9.1-24.5,5-29c-2.1,1-6.5,3.3-8.2,9.9c-1.8-1.1-4-2.5-4.3-4.5c-0.7-6-0.5-18.5-7.3-19.6c-1.4,5.5-2.6,11.3-3.6,17.5&#10;&#9;&#9;c-2.8,2.2-13.2,41.8,12.4,45.2L1214.6,993.6z" clip-rule="evenodd" class="colorf9af79 svgShape"/><path fill="#34a853" fill-rule="evenodd" d="M1220.7,971.5c-1,3.2,4.1,10,24.8,16.4c3.1-0.5,5.6-3.6,8.4-4.9c8.5-3.9,15.1-10.6,16.5-14.1&#10;&#9;&#9;c16.4-27.4,1.2-40.5-7.1-45.4c-1.8-28.4-44.3-6.4-63.8-21.3c-8.9,10.7,0.2,25.4,6.5,26.1c6.9,1,6.7,13.6,7.3,19.6&#10;&#9;&#9;c0.3,2,2.5,3.4,4.3,4.5c1.2-4.7,3.6-6.8,5.7-8.2c1.8-1.2,2.3-1.8,3.3,0.2C1228.8,949.4,1225.8,958,1220.7,971.5z" clip-rule="evenodd" class="color263c84 svgShape"/><path fill="#4285f4" fill-rule="evenodd" d="M1248.9,995.8c1.6,1.5,3.1,3.2,4.5,5.3l-1-0.3c-13-1.7-27.2-2.4-42.6-2.3c1.5-2,3.2-3.7,4.7-4.9&#10;&#9;&#9;C1217.5,992.3,1233.2,992.5,1248.9,995.8z" clip-rule="evenodd" class="color5e9bd3 svgShape"/><path fill="#fbbc05" fill-rule="evenodd" d="M1106.2,939.5c0.4-10.6,0.3-18.6,2.6-25.4c4.7-4.1,3.4-7.6,8.6-8.8c5.8-12.1,5.1-14,5.2-18.5&#10;&#9;&#9;c6.7,0.9,5.8,10.2-0.5,27.4c-1.1,10.3,1.4,13.3,7.7,9.1c2.5-7,6.6-8.7,9.4-8.2c-0.3,0.9-2.3,5-5.2,11.9&#10;&#9;&#9;c-3.8,5.7-7.7,10.4-10.4,11.5c-1.1,0.6-1.7,1.4-2.3,2.4C1117.2,939.2,1112.1,938.8,1106.2,939.5z" clip-rule="evenodd" class="colorf9af79 svgShape"/><path fill="#fadd88" fill-rule="evenodd" d="M1356.1,1047.3c0.4-6.5-2-11.5-1.8-25.5c4.1,0.3,5.9,4.4,5.4,12.2c4.8-4.8,6.9-9.7,6.4-14.8&#10;&#9;&#9;c0.1-2.8,0.1-5.1,0-6.7c6.7-2,10.5,4.8,11.4,20.4c-1.2,4.6-4.3,7.5-5.9,11.3c-1.3,2.4-2.4,5-3.6,8.7&#10;&#9;&#9;C1365,1048.9,1360.9,1047.1,1356.1,1047.3z" clip-rule="evenodd" class="colorfab688 svgShape"/><path fill="#436bac" fill-rule="evenodd" d="M1280.2,1193.7c5.6,38.1,8.3,98.2,7.9,156.2c5.4,27.5,5.1,71.5-0.8,160.7c-10.6,2.1-19.8,2.6-27.5,1.3&#10;&#9;&#9;c-13.8-83.2-19.1-126.6-15.8-158.9c-4.2-23.2-10-65.7-17.3-98.8c-7.3,33.1-13.1,75.7-17.3,98.8c3.3,32.3-2,75.6-15.8,158.9&#10;&#9;&#9;c-7.8,1.3-16.9,0.9-27.5-1.3c-6-89.2-6.3-133.2-0.8-160.7c-0.4-58.5,2.3-119.1,8-157.2C1217,1199,1252.7,1199.4,1280.2,1193.7z" clip-rule="evenodd" class="color4361ac svgShape"/><path fill="#34a853" fill-rule="evenodd" d="M1188.8 1527.9c2.6 2 3.3 11.6 1.1 18.8-8.6 3.9-17.1 2.8-25.3-1.1-4.2-1.6-9.2-4.4-9.1-7.3.2-5.7.3-5.8 12-11.8-.2 1.2-.4 2.2-.6 3.2v0c.5 1.3 1.5 2.3 3.5 1.1 2.1-1.4 1.4-5.9 7.5-6 5-.1 5.1 4.7 7.5 6.3C1188.1 1532.8 1188.7 1530 1188.8 1527.9zM1264.1 1527.9c-2.6 2-3.3 11.6-1.1 18.8 8.6 3.9 17.1 2.8 25.3-1.1 1.3-.6 6.3-2.2 6.7-3.6 1.4-4.9.2-11.3-9.6-15.6.2 1.2.4 2.2.6 3.2l0 0c-.5 1.3-1.5 2.3-3.5 1.1-2.1-1.4-1.4-5.9-7.5-6-5-.1-5.1 4.7-7.5 6.3C1264.8 1532.8 1264.2 1530 1264.1 1527.9z" clip-rule="evenodd" class="color263c84 svgShape"/><path fill="#fbbc05" fill-rule="evenodd" d="M1189 1512.4c-.9 7.1-1.2 13.1-.7 18.2-.5 1-1.3 1.4-2.8.4-2.4-1.6-2.5-6.4-7.5-6.3-6.1.1-5.3 4.6-7.5 6-1.9 1.3-3 .2-3.5-1.1.9-4.4 1.5-10.5 1.7-18.4C1176.2 1512.5 1183 1512.9 1189 1512.4zM1263.9 1512.4c.9 7.1 1.2 13.1.7 18.2.5 1 1.3 1.4 2.8.4 2.4-1.6 2.5-6.4 7.5-6.3 6.1.1 5.3 4.6 7.5 6 1.9 1.3 3 .2 3.5-1.1-.9-4.4-1.5-10.5-1.7-18.4C1276.7 1512.4 1269.9 1512.9 1263.9 1512.4z" clip-rule="evenodd" class="colorf9af79 svgShape"/><path fill="#4285f4" fill-rule="evenodd" d="M1167,1041.8c19.9,63.5,6.5,71.5,56.3,112.1c-10.1-5.7-19-9.5-24.9-14.1c-22.2-17.4-19.6,19.9-27.7,52.6&#10;&#9;&#9;c-0.2-10.9,2.2-31.4,7.3-61.5C1175.5,1102.3,1171.8,1072.6,1167,1041.8L1167,1041.8z M1336.1,1116.4c-1.6-11.4-3.7-19.2-6.3-23.7&#10;&#9;&#9;c0.6-2.6,1.6-5.5,3.1-9C1336.3,1097.2,1337.3,1108.1,1336.1,1116.4L1336.1,1116.4z M1122,999.4c-6,2.2-10.6,4.7-13.8,7.5&#10;&#9;&#9;c5.6-5,10.5-9.2,14.8-12.8C1122.7,995.9,1122.4,997.7,1122,999.4L1122,999.4z M1290.4,1066.7c-0.2,3.1-0.9,8-2.2,14.7&#10;&#9;&#9;c-2.7,17.9-7.6,42.9-10.7,81.6c2.2,9.3,5.7,21.4,6.5,30c-0.6,0.1-1.2,0.3-1.8,0.4c-1.1-5.1-3.2-11.9-6.4-20.2&#10;&#9;&#9;c-3.6-9.4-5.6-4-18-0.4c11.8-10.4,10.6-6.5,13.5-22C1277.2,1118.3,1283.6,1090.3,1290.4,1066.7z" clip-rule="evenodd" class="color5e9bd3 svgShape"/><path fill="#34a853" fill-rule="evenodd" d="M1262.8,930.3c-3-3.3-3.4-6.1-1.3-8.4c6.4-0.9,11.8,0.6,16.1,4.4C1274.5,925.6,1269.6,926.9,1262.8,930.3z" clip-rule="evenodd" class="color263c84 svgShape"/><path fill="#34a853" fill-rule="evenodd" d="M1257.4 924.6c1.5 2.9 3.3 4 5.4 3.1 2.3-4.2 2.7-8.3 1.2-12.3C1263.7 917.8 1261.5 920.9 1257.4 924.6zM1252.8 912.7c-1.1 7.6-5.7 11.4-13.8 11.4-13.1-7.1-19.8-15.5-20.2-25.5C1222.8 903.4 1234.2 908.1 1252.8 912.7zM1258.8 977.7c-1.4-7.9-7.4-11.9-18.1-11.9-23.8-15.1-21.2 6.1-19.9 18.9C1226.2 979.7 1234.6 982.5 1258.8 977.7z" clip-rule="evenodd" class="color263c84 svgShape"/><path fill="#34a853" fill-rule="evenodd" d="M1225.5,981.7c1.9-3.8,5.9-5.1,12-3.7c16.2-4.8,11.5,5.6,8.6,12.1C1243.8,986.9,1238.7,987.2,1225.5,981.7z" clip-rule="evenodd" class="color263c84 svgShape"/></g><path fill="#ffffff" fill-rule="evenodd" d="M1519.2,924.6l-9.1,5.3c-3.1,1.8-4.1,5.7-2.3,8.8l2,3.5c2.4,4.1,1.3,5.9,0.6,6.6c-2,1.8-3.9,3.8-5.8,5.7&#10;&#9;c-0.6,0.6-2.3,2.5-6.9-0.1l-3.2-1.8c-3.1-1.8-7-0.7-8.8,2.3l-5.3,9.1c-1.8,3.1-0.7,7,2.3,8.8l3.1,1.8c4.3,2.5,4.2,3.8,3.7,5.6&#10;&#9;c-0.8,2.5-1.6,5-2.1,7.7c-0.5,2.3-0.3,4-6.2,4h-3.6c-3.5,0-6.4,2.9-6.4,6.4v10.5c0,3.6,2.9,6.4,6.4,6.4h3.6c5.9,0,5.7,1.7,6.2,4&#10;&#9;c0.6,2.6,1.4,5.1,2.1,7.7c0.5,1.8,0.7,3.1-3.7,5.6l-3.1,1.8c-3.1,1.8-4.1,5.7-2.3,8.8l5.3,9.1c1.8,3.1,5.7,4.1,8.8,2.3l3.2-1.8&#10;&#9;c4.6-2.7,6.4-0.7,6.9-0.1c1.9,2,3.8,3.9,5.8,5.7c0.7,0.7,1.8,2.5-0.6,6.6l-2,3.4c-1.8,3.1-0.7,7,2.3,8.8l9.1,5.3&#10;&#9;c3.1,1.8,7,0.7,8.8-2.3l2-3.4c2.4-4.1,4.8-4,5.8-3.6c2.9,0.9,5.6,1.5,8.6,2.3c1.1,0.3,3,1.1,3,6v3.7c0,3.6,2.9,6.4,6.4,6.4h10.5&#10;&#9;c3.6,0,6.4-2.9,6.4-6.4v-3.7c0-4.9,1.9-5.7,3-6c3-0.8,5.7-1.4,8.6-2.3c1-0.3,3.4-0.5,5.8,3.6l2,3.4c1.8,3.1,5.7,4.1,8.8,2.3l9.1-5.3&#10;&#9;c3.1-1.8,4.1-5.7,2.3-8.8l-2-3.4c-2.4-4.1-1.3-5.9-0.6-6.6c2-1.8,3.9-3.8,5.8-5.7c0.6-0.6,2.3-2.5,6.9,0.1l3.2,1.8&#10;&#9;c3.1,1.8,7,0.7,8.8-2.3l5.3-9.1c1.8-3.1,0.7-7-2.3-8.8l-3.1-1.8c-4.3-2.5-4.2-3.8-3.7-5.6c0.8-2.5,1.6-5,2.1-7.7&#10;&#9;c0.5-2.3,0.3-4,6.2-4h3.6c3.6,0,6.4-2.9,6.4-6.4v-10.5c0-3.6-2.9-6.4-6.4-6.4h-3.6c-5.9,0-5.7-1.7-6.2-4c-0.6-2.6-1.4-5.1-2.1-7.7&#10;&#9;c-0.5-1.8-0.7-3.1,3.7-5.6l3.1-1.8c3.1-1.8,4.1-5.7,2.3-8.8l-5.3-9.1c-1.8-3.1-5.7-4.1-8.8-2.3l-3.2,1.8c-4.6,2.7-6.4,0.7-6.9,0.1&#10;&#9;c-1.9-2-3.8-3.9-5.8-5.7c-0.7-0.7-1.8-2.5,0.6-6.6l2-3.5c1.8-3.1,0.7-7-2.3-8.8l-9.1-5.3c-3.1-1.8-7-0.7-8.8,2.3l-2,3.4&#10;&#9;c-2.4,4.1-4.8,4-5.8,3.7c-2.9-0.9-5.6-1.5-8.6-2.3c-1.1-0.3-3-1.1-3-6V922c0-3.5-2.9-6.4-6.4-6.4h-10.5c-3.6,0-6.4,2.9-6.4,6.4v3.7&#10;&#9;c0,4.9-1.9,5.7-3,6c-3,0.8-5.7,1.4-8.6,2.3c-1,0.3-3.4,0.5-5.8-3.7l-2-3.4C1526.2,923.9,1522.3,922.8,1519.2,924.6L1519.2,924.6z&#10;&#9; M1559,989.6c7.7,0,13.9,6.2,13.9,13.9c0,7.7-6.2,13.9-13.9,13.9s-13.9-6.2-13.9-13.9C1545.1,995.8,1551.4,989.6,1559,989.6&#10;&#9;L1559,989.6z M1515.5,1003.5c0-1.6,1.3-3,3-3c1.6,0,3,1.3,3,3c0,10.4,4.2,19.8,11,26.6c6.8,6.8,16.2,11,26.6,11c1.6,0,3,1.3,3,3&#10;&#9;s-1.3,3-3,3c-12,0-22.9-4.9-30.8-12.7C1520.4,1026.4,1515.5,1015.5,1515.5,1003.5L1515.5,1003.5z M1602,996.5&#10;&#9;c0.3,1.6-0.8,3.1-2.5,3.4c-1.6,0.3-3.1-0.8-3.4-2.5c-1.3-7.9-5-14.9-10.4-20.4c-5.4-5.4-12.4-9.2-20.3-10.6&#10;&#9;c-1.6-0.3-2.7-1.8-2.4-3.4c0.3-1.6,1.8-2.7,3.4-2.4c9.1,1.6,17.2,6,23.5,12.3C1596.2,979.2,1600.5,987.3,1602,996.5L1602,996.5z&#10;&#9; M1559,951.9c28.5,0,51.6,23.1,51.6,51.6c0,28.5-23.1,51.6-51.6,51.6c-28.5,0-51.6-23.1-51.6-51.6&#10;&#9;C1507.5,975,1530.5,951.9,1559,951.9z" clip-rule="evenodd" class="colorfff svgShape"/><polygon fill="#ffffff" fill-rule="evenodd" points="453.4 1054.3 435.5 1007.6 409.9 1022 441.9 1061.3 441.6 1061.8 394.5 1053.4 394.5 1082.1 442.2 1073.6 442.5 1074.2 409.9 1113.5 434.1 1128.4 452.9 1081.2 453.4 1080.6 471.7 1128.1 497.5 1113.5 464.7 1075 464.9 1074.2 513.5 1082.1 513.5 1053.4 464.9 1062.1 464.9 1061.3 497.5 1021.7 472.2 1007.4 454.3 1054.3" clip-rule="evenodd" class="colorfff svgShape"/></svg>